<svg width="29" height="27" viewBox="0 0 29 27" fill="none" xmlns="http://www.w3.org/2000/svg">
<path fill-rule="evenodd" clip-rule="evenodd" d="M6.91624 10.1367C6.91624 6.08277 10.3255 2.78908 14.5217 2.78908C18.7066 2.78908 22.1272 6.09366 22.1272 10.1367V13.2826C22.1272 13.5165 22.182 13.8588 22.2858 14.2246C22.3884 14.586 22.5209 14.9071 22.6415 15.1111L23.9335 17.1841C24.9538 18.827 24.1382 20.9671 22.2585 21.5683C17.2288 23.1915 11.802 23.1914 6.77239 21.5679L6.76926 21.5669C5.82009 21.2565 5.10826 20.6148 4.78999 19.7844C4.47136 18.9531 4.57975 18.0173 5.09922 17.1832L6.39319 15.107C6.39348 15.1065 6.39377 15.106 6.39405 15.1056C6.51743 14.9052 6.65259 14.5852 6.75689 14.2222C6.86151 13.8581 6.91624 13.5163 6.91624 13.2826V10.1367ZM14.5217 4.42189C11.2589 4.42189 8.60634 6.98455 8.60634 10.1367V13.2826C8.60634 13.713 8.5146 14.2093 8.38541 14.6589C8.25616 15.1088 8.07058 15.5773 7.8449 15.9431L7.84301 15.9461L6.54739 18.025C6.54735 18.0251 6.54743 18.025 6.54739 18.025C6.267 18.4754 6.25134 18.895 6.37493 19.2174C6.49879 19.5406 6.79494 19.8511 7.30959 20.0198C11.9916 21.5306 17.0423 21.5305 21.7242 20.0192L21.7267 20.0184C22.5726 19.7483 22.9508 18.7762 22.4846 18.0248C22.4845 18.0246 22.4847 18.025 22.4846 18.0248L21.181 15.9331C20.9646 15.5706 20.7833 15.1053 20.6559 14.6565C20.5287 14.2086 20.4371 13.7127 20.4371 13.2826V10.1367C20.4371 6.99544 17.7732 4.42189 14.5217 4.42189Z" fill="#34495E"/>
<path fill-rule="evenodd" clip-rule="evenodd" d="M11.6506 3.62327C12.1006 2.51374 13.218 1.73318 14.5218 1.73318C15.8256 1.73318 16.943 2.51374 17.3931 3.62327C17.5106 3.9129 17.4475 4.24187 17.2304 4.4716C17.0133 4.70134 16.6799 4.79192 16.3707 4.70519C16.0581 4.61752 15.7426 4.55136 15.4229 4.51392L15.4198 4.51355C14.4458 4.39593 13.5256 4.46574 12.6732 4.70511C12.364 4.79196 12.0305 4.70145 11.8134 4.47171C11.5962 4.24197 11.5331 3.91295 11.6506 3.62327Z" fill="#34495E"/>
<path fill-rule="evenodd" clip-rule="evenodd" d="M11.9865 21.1854C11.9865 21.8522 12.2736 22.4744 12.7305 22.9158C13.1874 23.3573 13.8315 23.6346 14.5216 23.6346C15.9141 23.6346 17.0568 22.5306 17.0568 21.1854H18.7469C18.7469 23.4324 16.8475 25.2675 14.5216 25.2675C13.3639 25.2675 12.2954 24.8046 11.5354 24.0704C10.7755 23.3362 10.2964 22.3039 10.2964 21.1854H11.9865Z" fill="#34495E"/>
</svg>
